<!DOCTYPE svg PUBLIC "-//W3C//DTD SVG 1.1//EN" "http://www.w3.org/Graphics/SVG/1.1/DTD/svg11.dtd">
<!-- Uploaded to: SVG Repo, www.svgrepo.com, Transformed by: SVG Repo Mixer Tools -->
<svg width="800px" height="800px" viewBox="0 0 24 24" version="1.1" xml:space="preserve" xmlns="http://www.w3.org/2000/svg" xmlns:xlink="http://www.w3.org/1999/xlink" fill="#FFB433">
<g id="SVGRepo_bgCarrier" stroke-width="0"/>
<g id="SVGRepo_tracerCarrier" stroke-linecap="round" stroke-linejoin="round"/>
<g id="SVGRepo_iconCarrier"> <style type="text/css"> .st0{opacity:0.2;fill:none;stroke:#000000;stroke-width:5.000000e-02;stroke-miterlimit:10;} .st1{fill:none;stroke:#000000;stroke-width:2;stroke-linecap:round;stroke-linejoin:round;stroke-miterlimit:10;} </style> <g id="Layer_1"/> <g id="Layer_2"> <g> <path d="M22.7,15.3l-7-7c-0.4-0.4-1-0.4-1.4,0l-1.4,1.4C12.4,9.3,11.7,9,11,9c-1,0-1.9,0.5-2.4,1.2c-0.4-0.3-0.9-0.3-1.3,0.1l-5,5 C2,15.6,1.9,16,2.1,16.4C2.2,16.8,2.6,17,3,17h10h9c0.4,0,0.8-0.2,0.9-0.6C23.1,16,23,15.6,22.7,15.3z M11.5,11.1l-1,1l-0.4-0.4 C10.3,11.1,11,10.8,11.5,11.1z M5.4,15L8,12.4l0.3,0.3l1.5,1.5l0.8,0.8H5.4z M13.4,15l-1.5-1.5l1.6-1.6c0,0,0,0,0,0l1.5-1.5 l4.6,4.6H13.4z"/> <path d="M7.3,7.7C7.5,7.9,7.7,8,8,8s0.5-0.1,0.7-0.3c0.4-0.4,0.4-1,0-1.4l-1-1c-0.4-0.4-1-0.4-1.4,0s-0.4,1,0,1.4L7.3,7.7z"/> <path d="M11,7c0.6,0,1-0.4,1-1V5c0-0.6-0.4-1-1-1s-1,0.4-1,1v1C10,6.6,10.4,7,11,7z"/> <path d="M14,8c0.3,0,0.5-0.1,0.7-0.3l1-1c0.4-0.4,0.4-1,0-1.4s-1-0.4-1.4,0l-1,1c-0.4,0.4-0.4,1,0,1.4C13.5,7.9,13.7,8,14,8z"/> </g> </g> </g>
</svg>